<svg data-v-fde0c5aa="" xmlns="http://www.w3.org/2000/svg" viewBox="0 0 300 300" class="font"><!----><defs data-v-fde0c5aa=""><!----></defs><rect data-v-fde0c5aa="" fill="#81AAD9" x="0" y="0" width="300px" height="300px" class="logo-background-square"></rect><defs data-v-fde0c5aa=""><!----></defs><g data-v-fde0c5aa="" id="3c0b5715-fd37-4e2a-b7a6-f6ac0da8b91e" fill="#F2CCB1" transform="matrix(2.3878947737143297,0,0,2.3878947737143297,37.97028938541097,128.138823984282)"><path d="M7.64 5.66L7.64 5.66Q7.64 5.89 7.41 5.89L7.41 5.89L2.91 5.89L2.91 5.89Q2.83 5.89 2.83 5.98L2.83 5.98L2.83 8.12L2.83 8.12Q2.83 8.20 2.91 8.20L2.91 8.20L5.84 8.20L5.84 8.20Q6.08 8.20 6.08 8.44L6.08 8.44L6.08 9.66L6.08 9.66Q6.08 9.90 5.84 9.90L5.84 9.90L2.91 9.90L2.91 9.90Q2.83 9.90 2.83 9.98L2.83 9.98L2.83 13.76L2.83 13.76Q2.83 14 2.59 14L2.59 14L1.09 14L1.09 14Q0.85 14 0.85 13.76L0.85 13.76L0.85 4.44L0.85 4.44Q0.85 4.20 1.09 4.20L1.09 4.20L7.41 4.20L7.41 4.20Q7.64 4.20 7.64 4.44L7.64 4.44L7.64 5.66ZM11.76 14.11L11.76 14.11Q10.57 14.11 9.73 13.50L9.73 13.50L9.73 13.50Q8.89 12.88 8.58 11.82L8.58 11.82L8.58 11.82Q8.39 11.16 8.39 10.39L8.39 10.39L8.39 10.39Q8.39 9.53 8.60 8.90L8.60 8.90L8.60 8.90Q8.92 7.87 9.75 7.28L9.75 7.28L9.75 7.28Q10.58 6.69 11.77 6.69L11.77 6.69L11.77 6.69Q12.92 6.69 13.74 7.28L13.74 7.28L13.74 7.28Q14.56 7.87 14.88 8.89L14.88 8.89L14.88 8.89Q15.09 9.53 15.09 10.36L15.09 10.36L15.09 10.36Q15.09 11.09 14.91 11.77L14.91 11.77L14.91 11.77Q14.59 12.87 13.75 13.49L13.75 13.49L13.75 13.49Q12.92 14.11 11.76 14.11L11.76 14.11ZM11.76 12.42L11.76 12.42Q12.21 12.42 12.53 12.14L12.53 12.14L12.53 12.14Q12.85 11.86 12.99 11.37L12.99 11.37L12.99 11.37Q13.10 10.99 13.10 10.39L13.10 10.39L13.10 10.39Q13.10 9.80 12.99 9.39L12.99 9.39L12.99 9.39Q12.85 8.92 12.53 8.65L12.53 8.65L12.53 8.65Q12.21 8.39 11.73 8.39L11.73 8.39L11.73 8.39Q11.27 8.39 10.95 8.65L10.95 8.65L10.95 8.65Q10.63 8.92 10.49 9.39L10.49 9.39L10.49 9.39Q10.37 9.80 10.37 10.39L10.37 10.39L10.37 10.39Q10.37 10.96 10.49 11.37L10.49 11.37L10.49 11.37Q10.63 11.86 10.96 12.14L10.96 12.14L10.96 12.14Q11.28 12.42 11.76 12.42L11.76 12.42ZM19.95 6.71L19.95 6.71Q20.40 6.71 20.69 6.87L20.69 6.87L20.69 6.87Q20.86 6.96 20.82 7.17L20.82 7.17L20.55 8.64L20.55 8.64Q20.54 8.76 20.48 8.79L20.48 8.79L20.48 8.79Q20.41 8.82 20.27 8.79L20.27 8.79L20.27 8.79Q20.05 8.74 19.87 8.74L19.87 8.74L19.87 8.74Q19.77 8.74 19.54 8.76L19.54 8.76L19.54 8.76Q19.04 8.81 18.69 9.13L18.69 9.13L18.69 9.13Q18.34 9.46 18.34 10.01L18.34 10.01L18.34 13.76L18.34 13.76Q18.34 14 18.10 14L18.10 14L16.60 14L16.60 14Q16.37 14 16.37 13.76L16.37 13.76L16.37 7.04L16.37 7.04Q16.37 6.80 16.60 6.80L16.60 6.80L18.10 6.80L18.10 6.80Q18.34 6.80 18.34 7.04L18.34 7.04L18.34 7.48L18.34 7.48Q18.34 7.53 18.37 7.55L18.37 7.55L18.37 7.55Q18.40 7.56 18.44 7.52L18.44 7.52L18.44 7.52Q19.00 6.71 19.95 6.71L19.95 6.71ZM29.71 6.69L29.71 6.69Q30.80 6.69 31.42 7.35L31.42 7.35L31.42 7.35Q32.03 8.01 32.03 9.20L32.03 9.20L32.03 13.76L32.03 13.76Q32.03 14 31.79 14L31.79 14L30.30 14L30.30 14Q30.06 14 30.06 13.76L30.06 13.76L30.06 9.63L30.06 9.63Q30.06 9.06 29.76 8.72L29.76 8.72L29.76 8.72Q29.47 8.39 28.98 8.39L28.98 8.39L28.98 8.39Q28.49 8.39 28.18 8.72L28.18 8.72L28.18 8.72Q27.87 9.06 27.87 9.62L27.87 9.62L27.87 13.76L27.87 13.76Q27.87 14 27.64 14L27.64 14L26.15 14L26.15 14Q25.91 14 25.91 13.76L25.91 13.76L25.91 9.63L25.91 9.63Q25.91 9.07 25.61 8.73L25.61 8.73L25.61 8.73Q25.30 8.39 24.81 8.39L24.81 8.39L24.81 8.39Q24.36 8.39 24.06 8.65L24.06 8.65L24.06 8.65Q23.76 8.92 23.70 9.39L23.70 9.39L23.70 13.76L23.70 13.76Q23.70 14 23.46 14L23.46 14L21.97 14L21.97 14Q21.73 14 21.73 13.76L21.73 13.76L21.73 7.04L21.73 7.04Q21.73 6.80 21.97 6.80L21.97 6.80L23.46 6.80L23.46 6.80Q23.70 6.80 23.70 7.04L23.70 7.04L23.70 7.49L23.70 7.49Q23.70 7.55 23.74 7.56L23.74 7.56L23.74 7.56Q23.77 7.57 23.80 7.52L23.80 7.52L23.80 7.52Q24.37 6.69 25.56 6.69L25.56 6.69L25.56 6.69Q26.26 6.69 26.78 6.98L26.78 6.98L26.78 6.98Q27.30 7.27 27.58 7.81L27.58 7.81L27.58 7.81Q27.59 7.87 27.63 7.86L27.63 7.86L27.63 7.86Q27.66 7.85 27.69 7.81L27.69 7.81L27.69 7.81Q28.01 7.25 28.53 6.97L28.53 6.97L28.53 6.97Q29.05 6.69 29.71 6.69L29.71 6.69ZM37.62 7.04L37.62 7.04Q37.62 6.80 37.86 6.80L37.86 6.80L39.35 6.80L39.35 6.80Q39.59 6.80 39.59 7.04L39.59 7.04L39.59 13.76L39.59 13.76Q39.59 14 39.35 14L39.35 14L37.86 14L37.86 14Q37.62 14 37.62 13.76L37.62 13.76L37.62 13.38L37.62 13.38Q37.62 13.33 37.58 13.32L37.58 13.32L37.58 13.32Q37.55 13.31 37.52 13.36L37.52 13.36L37.52 13.36Q36.97 14.10 35.80 14.10L35.80 14.10L35.80 14.10Q34.73 14.10 34.05 13.45L34.05 13.45L34.05 13.45Q33.36 12.81 33.36 11.65L33.36 11.65L33.36 7.04L33.36 7.04Q33.36 6.80 33.60 6.80L33.60 6.80L35.08 6.80L35.08 6.80Q35.32 6.80 35.32 7.04L35.32 7.04L35.32 11.16L35.32 11.16Q35.32 11.72 35.62 12.07L35.62 12.07L35.62 12.07Q35.92 12.42 36.46 12.42L36.46 12.42L36.46 12.42Q36.93 12.42 37.24 12.13L37.24 12.13L37.24 12.13Q37.55 11.84 37.62 11.38L37.62 11.38L37.62 7.04ZM41.31 14L41.31 14Q41.08 14 41.08 13.76L41.08 13.76L41.08 4.44L41.08 4.44Q41.08 4.20 41.31 4.20L41.31 4.20L42.81 4.20L42.81 4.20Q43.05 4.20 43.05 4.44L43.05 4.44L43.05 13.76L43.05 13.76Q43.05 14 42.81 14L42.81 14L41.31 14ZM47.42 6.69L47.42 6.69Q48.33 6.69 49.04 7.01L49.04 7.01L49.04 7.01Q49.76 7.32 50.16 7.87L50.16 7.87L50.16 7.87Q50.55 8.41 50.55 9.09L50.55 9.09L50.55 13.76L50.55 13.76Q50.55 14 50.32 14L50.32 14L48.82 14L48.82 14Q48.58 14 48.58 13.76L48.58 13.76L48.58 13.43L48.58 13.43Q48.58 13.37 48.55 13.36L48.55 13.36L48.55 13.36Q48.52 13.36 48.48 13.40L48.48 13.40L48.48 13.40Q47.84 14.11 46.56 14.11L46.56 14.11L46.56 14.11Q45.49 14.11 44.83 13.58L44.83 13.58L44.83 13.58Q44.17 13.05 44.17 12.01L44.17 12.01L44.17 12.01Q44.17 10.93 44.93 10.34L44.93 10.34L44.93 10.34Q45.68 9.74 47.08 9.74L47.08 9.74L48.50 9.74L48.50 9.74Q48.58 9.74 48.58 9.66L48.58 9.66L48.58 9.37L48.58 9.37Q48.58 8.90 48.29 8.64L48.29 8.64L48.29 8.64Q48.01 8.39 47.46 8.39L47.46 8.39L47.46 8.39Q47.04 8.39 46.77 8.53L46.77 8.53L46.77 8.53Q46.49 8.67 46.40 8.92L46.40 8.92L46.40 8.92Q46.31 9.11 46.12 9.10L46.12 9.10L44.56 8.90L44.56 8.90Q44.45 8.89 44.39 8.84L44.39 8.84L44.39 8.84Q44.32 8.79 44.34 8.71L44.34 8.71L44.34 8.71Q44.41 8.13 44.82 7.67L44.82 7.67L44.82 7.67Q45.23 7.21 45.91 6.95L45.91 6.95L45.91 6.95Q46.59 6.69 47.42 6.69L47.42 6.69ZM47.14 12.64L47.14 12.64Q47.74 12.64 48.16 12.32L48.16 12.32L48.16 12.32Q48.58 12.00 48.58 11.49L48.58 11.49L48.58 11.00L48.58 11.00Q48.58 10.92 48.50 10.92L48.50 10.92L47.50 10.92L47.50 10.92Q46.87 10.92 46.51 11.16L46.51 11.16L46.51 11.16Q46.14 11.40 46.14 11.83L46.14 11.83L46.14 11.83Q46.14 12.21 46.42 12.43L46.42 12.43L46.42 12.43Q46.69 12.64 47.14 12.64L47.14 12.64ZM60.68 8.88L60.68 8.88Q60.63 8.89 60.63 8.93L60.63 8.93L60.63 8.93Q60.63 8.96 60.68 8.99L60.68 8.99L60.68 8.99Q61.99 9.65 61.99 11.26L61.99 11.26L61.99 11.26Q61.99 12.61 61.07 13.31L61.07 13.31L61.07 13.31Q60.14 14 58.65 14L58.65 14L55.09 14L55.09 14Q54.85 14 54.85 13.76L54.85 13.76L54.85 4.44L54.85 4.44Q54.85 4.20 55.09 4.20L55.09 4.20L58.53 4.20L58.53 4.20Q61.85 4.20 61.85 6.89L61.85 6.89L61.85 6.89Q61.85 8.30 60.68 8.88L60.68 8.88ZM56.91 5.89L56.91 5.89Q56.83 5.89 56.83 5.98L56.83 5.98L56.83 8.13L56.83 8.13Q56.83 8.22 56.91 8.22L56.91 8.22L58.53 8.22L58.53 8.22Q59.19 8.22 59.56 7.91L59.56 7.91L59.56 7.91Q59.92 7.60 59.92 7.07L59.92 7.07L59.92 7.07Q59.92 6.52 59.56 6.21L59.56 6.21L59.56 6.21Q59.19 5.89 58.53 5.89L58.53 5.89L56.91 5.89ZM58.65 12.29L58.65 12.29Q59.29 12.29 59.65 11.96L59.65 11.96L59.65 11.96Q60.02 11.63 60.02 11.06L60.02 11.06L60.02 11.06Q60.02 10.49 59.65 10.16L59.65 10.16L59.65 10.16Q59.29 9.83 58.63 9.83L58.63 9.83L56.91 9.83L56.91 9.83Q56.83 9.83 56.83 9.91L56.83 9.91L56.83 12.21L56.83 12.21Q56.83 12.29 56.91 12.29L56.91 12.29L58.65 12.29ZM63.67 14L63.67 14Q63.43 14 63.43 13.76L63.43 13.76L63.43 4.44L63.43 4.44Q63.43 4.20 63.67 4.20L63.67 4.20L65.17 4.20L65.17 4.20Q65.41 4.20 65.41 4.44L65.41 4.44L65.41 13.76L65.41 13.76Q65.41 14 65.17 14L65.17 14L63.67 14ZM69.78 6.69L69.78 6.69Q70.69 6.69 71.40 7.01L71.40 7.01L71.40 7.01Q72.11 7.32 72.51 7.87L72.51 7.87L72.51 7.87Q72.91 8.41 72.91 9.09L72.91 9.09L72.91 13.76L72.91 13.76Q72.91 14 72.67 14L72.67 14L71.18 14L71.18 14Q70.94 14 70.94 13.76L70.94 13.76L70.94 13.43L70.94 13.43Q70.94 13.37 70.91 13.36L70.91 13.36L70.91 13.36Q70.88 13.36 70.84 13.40L70.84 13.40L70.84 13.40Q70.20 14.11 68.92 14.11L68.92 14.11L68.92 14.11Q67.84 14.11 67.19 13.58L67.19 13.58L67.19 13.58Q66.53 13.05 66.53 12.01L66.53 12.01L66.53 12.01Q66.53 10.93 67.28 10.34L67.28 10.34L67.28 10.34Q68.04 9.74 69.44 9.74L69.44 9.74L70.85 9.74L70.85 9.74Q70.94 9.74 70.94 9.66L70.94 9.66L70.94 9.37L70.94 9.37Q70.94 8.90 70.65 8.64L70.65 8.64L70.65 8.64Q70.36 8.39 69.82 8.39L69.82 8.39L69.82 8.39Q69.40 8.39 69.13 8.53L69.13 8.53L69.13 8.53Q68.85 8.67 68.75 8.92L68.75 8.92L68.75 8.92Q68.67 9.11 68.47 9.10L68.47 9.10L66.92 8.90L66.92 8.90Q66.81 8.89 66.75 8.84L66.75 8.84L66.75 8.84Q66.68 8.79 66.70 8.71L66.70 8.71L66.70 8.71Q66.77 8.13 67.18 7.67L67.18 7.67L67.18 7.67Q67.59 7.21 68.27 6.95L68.27 6.95L68.27 6.95Q68.95 6.69 69.78 6.69L69.78 6.69ZM69.50 12.64L69.50 12.64Q70.10 12.64 70.52 12.32L70.52 12.32L70.52 12.32Q70.94 12.00 70.94 11.49L70.94 11.49L70.94 11.00L70.94 11.00Q70.94 10.92 70.85 10.92L70.85 10.92L69.86 10.92L69.86 10.92Q69.23 10.92 68.87 11.16L68.87 11.16L68.87 11.16Q68.50 11.40 68.50 11.83L68.50 11.83L68.50 11.83Q68.50 12.21 68.78 12.43L68.78 12.43L68.78 12.43Q69.05 12.64 69.50 12.64L69.50 12.64ZM74.13 14L74.13 14Q73.89 14 73.89 13.76L73.89 13.76L73.89 12.38L73.89 12.38Q73.89 12.21 74.00 12.08L74.00 12.08L77.11 8.68L77.11 8.68Q77.14 8.64 77.13 8.61L77.13 8.61L77.13 8.61Q77.13 8.58 77.07 8.58L77.07 8.58L74.21 8.58L74.21 8.58Q73.98 8.58 73.98 8.34L73.98 8.34L73.98 7.04L73.98 7.04Q73.98 6.80 74.21 6.80L74.21 6.80L79.31 6.80L79.31 6.80Q79.55 6.80 79.55 7.04L79.55 7.04L79.55 8.41L79.55 8.41Q79.55 8.58 79.44 8.71L79.44 8.71L76.23 12.11L76.23 12.11Q76.20 12.15 76.21 12.18L76.21 12.18L76.21 12.18Q76.22 12.21 76.27 12.21L76.27 12.21L79.38 12.21L79.38 12.21Q79.62 12.21 79.62 12.45L79.62 12.45L79.62 13.76L79.62 13.76Q79.62 14 79.38 14L79.38 14L74.13 14ZM83.92 14.11L83.92 14.11Q82.73 14.11 81.89 13.50L81.89 13.50L81.89 13.50Q81.05 12.88 80.74 11.82L80.74 11.82L80.74 11.82Q80.54 11.16 80.54 10.39L80.54 10.39L80.54 10.39Q80.54 9.53 80.75 8.90L80.75 8.90L80.75 8.90Q81.07 7.87 81.91 7.28L81.91 7.28L81.91 7.28Q82.74 6.69 83.93 6.69L83.93 6.69L83.93 6.69Q85.08 6.69 85.90 7.28L85.90 7.28L85.90 7.28Q86.72 7.87 87.04 8.89L87.04 8.89L87.04 8.89Q87.25 9.53 87.25 10.36L87.25 10.36L87.25 10.36Q87.25 11.09 87.07 11.77L87.07 11.77L87.07 11.77Q86.74 12.87 85.91 13.49L85.91 13.49L85.91 13.49Q85.08 14.11 83.92 14.11L83.92 14.11ZM83.92 12.42L83.92 12.42Q84.36 12.42 84.69 12.14L84.69 12.14L84.69 12.14Q85.01 11.86 85.15 11.37L85.15 11.37L85.15 11.37Q85.26 10.99 85.26 10.39L85.26 10.39L85.26 10.39Q85.26 9.80 85.15 9.39L85.15 9.39L85.15 9.39Q85.01 8.92 84.69 8.65L84.69 8.65L84.69 8.65Q84.36 8.39 83.89 8.39L83.89 8.39L83.89 8.39Q83.43 8.39 83.10 8.65L83.10 8.65L83.10 8.65Q82.78 8.92 82.64 9.39L82.64 9.39L82.64 9.39Q82.53 9.80 82.53 10.39L82.53 10.39L82.53 10.39Q82.53 10.96 82.64 11.37L82.64 11.37L82.64 11.37Q82.78 11.86 83.11 12.14L83.11 12.14L83.11 12.14Q83.44 12.42 83.92 12.42L83.92 12.42ZM92.11 6.71L92.11 6.71Q92.55 6.71 92.85 6.87L92.85 6.87L92.85 6.87Q93.02 6.96 92.97 7.17L92.97 7.17L92.71 8.64L92.71 8.64Q92.69 8.76 92.63 8.79L92.63 8.79L92.63 8.79Q92.57 8.82 92.43 8.79L92.43 8.79L92.43 8.79Q92.20 8.74 92.02 8.74L92.02 8.74L92.02 8.74Q91.92 8.74 91.70 8.76L91.70 8.76L91.70 8.76Q91.20 8.81 90.85 9.13L90.85 9.13L90.85 9.13Q90.50 9.46 90.50 10.01L90.50 10.01L90.50 13.76L90.50 13.76Q90.50 14 90.26 14L90.26 14L88.76 14L88.76 14Q88.52 14 88.52 13.76L88.52 13.76L88.52 7.04L88.52 7.04Q88.52 6.80 88.76 6.80L88.76 6.80L90.26 6.80L90.26 6.80Q90.50 6.80 90.50 7.04L90.50 7.04L90.50 7.48L90.50 7.48Q90.50 7.53 90.52 7.55L90.52 7.55L90.52 7.55Q90.55 7.56 90.59 7.52L90.59 7.52L90.59 7.52Q91.15 6.71 92.11 6.71L92.11 6.71Z"></path></g><!----><!----></svg>